<mxfile host="app.diagrams.net" modified="2023-12-12T17:18:19.833Z" agent="Mozilla/5.0 (Windows NT 10.0; Win64; x64) AppleWebKit/537.36 (KHTML, like Gecko) Chrome/120.0.0.0 Safari/537.36" etag="w4_Rf5S41oXuj6xdvKs1" version="22.1.7" type="device">
  <diagram name="1 oldal" id="VGHRhC5i5Pl_GjcrZ4Ev">
    <mxGraphModel dx="1221" dy="657" grid="1" gridSize="10" guides="1" tooltips="1" connect="1" arrows="1" fold="1" page="1" pageScale="1" pageWidth="4681" pageHeight="3300" math="0" shadow="0">
      <root>
        <mxCell id="0" />
        <mxCell id="1" parent="0" />
        <mxCell id="0XOMRGo27SAa32yq73o5-1" value="Hajó_Rakomány_XML" style="ellipse;whiteSpace=wrap;html=1;" parent="1" vertex="1">
          <mxGeometry x="1990" y="30" width="130" height="90" as="geometry" />
        </mxCell>
        <mxCell id="0XOMRGo27SAa32yq73o5-4" value="Kapitány" style="ellipse;whiteSpace=wrap;html=1;" parent="1" vertex="1">
          <mxGeometry x="1660" y="260" width="130" height="90" as="geometry" />
        </mxCell>
        <mxCell id="0XOMRGo27SAa32yq73o5-5" value="Rakomány" style="ellipse;whiteSpace=wrap;html=1;" parent="1" vertex="1">
          <mxGeometry x="960" y="260" width="130" height="90" as="geometry" />
        </mxCell>
        <mxCell id="0XOMRGo27SAa32yq73o5-6" value="Út" style="ellipse;whiteSpace=wrap;html=1;" parent="1" vertex="1">
          <mxGeometry x="2643.75" y="280" width="130" height="90" as="geometry" />
        </mxCell>
        <mxCell id="0XOMRGo27SAa32yq73o5-7" value="Megtett_Út" style="ellipse;whiteSpace=wrap;html=1;" parent="1" vertex="1">
          <mxGeometry x="2190" y="270" width="130" height="90" as="geometry" />
        </mxCell>
        <mxCell id="0XOMRGo27SAa32yq73o5-8" value="Kikötő" style="ellipse;whiteSpace=wrap;html=1;" parent="1" vertex="1">
          <mxGeometry x="3610" y="270" width="130" height="90" as="geometry" />
        </mxCell>
        <mxCell id="0XOMRGo27SAa32yq73o5-9" value="Út_Kikötői" style="ellipse;whiteSpace=wrap;html=1;" parent="1" vertex="1">
          <mxGeometry x="3090" y="270" width="130" height="90" as="geometry" />
        </mxCell>
        <mxCell id="0XOMRGo27SAa32yq73o5-11" value="Hajó" style="ellipse;whiteSpace=wrap;html=1;" parent="1" vertex="1">
          <mxGeometry x="230" y="260" width="130" height="90" as="geometry" />
        </mxCell>
        <mxCell id="0XOMRGo27SAa32yq73o5-19" value="" style="endArrow=none;html=1;rounded=0;exitX=0.5;exitY=0;exitDx=0;exitDy=0;entryX=0.5;entryY=1;entryDx=0;entryDy=0;" parent="1" source="0XOMRGo27SAa32yq73o5-11" target="0XOMRGo27SAa32yq73o5-1" edge="1">
          <mxGeometry width="50" height="50" relative="1" as="geometry">
            <mxPoint x="2370" y="420" as="sourcePoint" />
            <mxPoint x="2300" y="160" as="targetPoint" />
          </mxGeometry>
        </mxCell>
        <mxCell id="0XOMRGo27SAa32yq73o5-20" value="" style="endArrow=none;html=1;rounded=0;exitX=0.5;exitY=0;exitDx=0;exitDy=0;entryX=0.5;entryY=1;entryDx=0;entryDy=0;" parent="1" source="0XOMRGo27SAa32yq73o5-5" target="0XOMRGo27SAa32yq73o5-1" edge="1">
          <mxGeometry width="50" height="50" relative="1" as="geometry">
            <mxPoint x="2605" y="420" as="sourcePoint" />
            <mxPoint x="2550" y="100" as="targetPoint" />
          </mxGeometry>
        </mxCell>
        <mxCell id="0XOMRGo27SAa32yq73o5-21" value="" style="endArrow=none;html=1;rounded=0;entryX=0.5;entryY=1;entryDx=0;entryDy=0;exitX=0.5;exitY=0;exitDx=0;exitDy=0;" parent="1" source="0XOMRGo27SAa32yq73o5-4" target="0XOMRGo27SAa32yq73o5-1" edge="1">
          <mxGeometry width="50" height="50" relative="1" as="geometry">
            <mxPoint x="2880" y="420" as="sourcePoint" />
            <mxPoint x="2815" y="160" as="targetPoint" />
          </mxGeometry>
        </mxCell>
        <mxCell id="0XOMRGo27SAa32yq73o5-22" value="" style="endArrow=none;html=1;rounded=0;entryX=0.5;entryY=1;entryDx=0;entryDy=0;exitX=0.5;exitY=0;exitDx=0;exitDy=0;" parent="1" source="0XOMRGo27SAa32yq73o5-7" target="0XOMRGo27SAa32yq73o5-1" edge="1">
          <mxGeometry width="50" height="50" relative="1" as="geometry">
            <mxPoint x="2880" y="420" as="sourcePoint" />
            <mxPoint x="2815" y="160" as="targetPoint" />
          </mxGeometry>
        </mxCell>
        <mxCell id="0XOMRGo27SAa32yq73o5-23" value="" style="endArrow=none;html=1;rounded=0;entryX=0.5;entryY=1;entryDx=0;entryDy=0;exitX=0.5;exitY=0;exitDx=0;exitDy=0;" parent="1" source="0XOMRGo27SAa32yq73o5-6" target="0XOMRGo27SAa32yq73o5-1" edge="1">
          <mxGeometry width="50" height="50" relative="1" as="geometry">
            <mxPoint x="2880" y="420" as="sourcePoint" />
            <mxPoint x="2815" y="160" as="targetPoint" />
          </mxGeometry>
        </mxCell>
        <mxCell id="0XOMRGo27SAa32yq73o5-24" value="" style="endArrow=none;html=1;rounded=0;exitX=0.5;exitY=0;exitDx=0;exitDy=0;entryX=0.5;entryY=1;entryDx=0;entryDy=0;" parent="1" source="0XOMRGo27SAa32yq73o5-9" target="0XOMRGo27SAa32yq73o5-1" edge="1">
          <mxGeometry width="50" height="50" relative="1" as="geometry">
            <mxPoint x="2880" y="420" as="sourcePoint" />
            <mxPoint x="2815" y="160" as="targetPoint" />
          </mxGeometry>
        </mxCell>
        <mxCell id="0XOMRGo27SAa32yq73o5-25" value="" style="endArrow=none;html=1;rounded=0;entryX=0.5;entryY=1;entryDx=0;entryDy=0;exitX=0.5;exitY=0;exitDx=0;exitDy=0;" parent="1" source="0XOMRGo27SAa32yq73o5-8" target="0XOMRGo27SAa32yq73o5-1" edge="1">
          <mxGeometry width="50" height="50" relative="1" as="geometry">
            <mxPoint x="2880" y="420" as="sourcePoint" />
            <mxPoint x="2815" y="160" as="targetPoint" />
            <Array as="points">
              <mxPoint x="3340" y="210" />
            </Array>
          </mxGeometry>
        </mxCell>
        <mxCell id="0XOMRGo27SAa32yq73o5-26" value="&lt;font style=&quot;font-size: 14px;&quot;&gt;Hajó&lt;/font&gt;" style="ellipse;whiteSpace=wrap;html=1;" parent="1" vertex="1">
          <mxGeometry x="245" y="270" width="100" height="70" as="geometry" />
        </mxCell>
        <mxCell id="0XOMRGo27SAa32yq73o5-27" value="&lt;font style=&quot;font-size: 14px;&quot;&gt;Hajó&lt;/font&gt;" style="ellipse;whiteSpace=wrap;html=1;" parent="1" vertex="1">
          <mxGeometry x="980" y="275" width="90" height="60" as="geometry" />
        </mxCell>
        <mxCell id="0XOMRGo27SAa32yq73o5-32" value="&lt;font style=&quot;font-size: 14px;&quot;&gt;Rakomány&lt;br&gt;&lt;/font&gt;" style="ellipse;whiteSpace=wrap;html=1;" parent="1" vertex="1">
          <mxGeometry x="975" y="270" width="100" height="70" as="geometry" />
        </mxCell>
        <mxCell id="0XOMRGo27SAa32yq73o5-33" value="&lt;font style=&quot;font-size: 14px;&quot;&gt;Kapitány&lt;/font&gt;" style="ellipse;whiteSpace=wrap;html=1;" parent="1" vertex="1">
          <mxGeometry x="1675" y="270" width="100" height="70" as="geometry" />
        </mxCell>
        <mxCell id="0XOMRGo27SAa32yq73o5-34" value="&lt;font style=&quot;font-size: 14px;&quot;&gt;Megtett_Út&lt;/font&gt;" style="ellipse;whiteSpace=wrap;html=1;" parent="1" vertex="1">
          <mxGeometry x="2205" y="280" width="100" height="70" as="geometry" />
        </mxCell>
        <mxCell id="0XOMRGo27SAa32yq73o5-35" value="&lt;font style=&quot;font-size: 14px;&quot;&gt;Út&lt;/font&gt;" style="ellipse;whiteSpace=wrap;html=1;" parent="1" vertex="1">
          <mxGeometry x="2658.75" y="290" width="100" height="70" as="geometry" />
        </mxCell>
        <mxCell id="0XOMRGo27SAa32yq73o5-36" value="&lt;font style=&quot;font-size: 14px;&quot;&gt;Út_Kikötői&lt;/font&gt;" style="ellipse;whiteSpace=wrap;html=1;" parent="1" vertex="1">
          <mxGeometry x="3105" y="280" width="100" height="70" as="geometry" />
        </mxCell>
        <mxCell id="0XOMRGo27SAa32yq73o5-37" value="&lt;font style=&quot;font-size: 14px;&quot;&gt;Kikötő&lt;/font&gt;" style="ellipse;whiteSpace=wrap;html=1;" parent="1" vertex="1">
          <mxGeometry x="3625" y="280" width="100" height="70" as="geometry" />
        </mxCell>
        <mxCell id="0XOMRGo27SAa32yq73o5-40" value="max_rakomány_szám" style="ellipse;whiteSpace=wrap;html=1;" parent="1" vertex="1">
          <mxGeometry x="140" y="410" width="130" height="90" as="geometry" />
        </mxCell>
        <mxCell id="0XOMRGo27SAa32yq73o5-41" value="súlyterhelés" style="ellipse;whiteSpace=wrap;html=1;" parent="1" vertex="1">
          <mxGeometry x="300" y="410" width="130" height="90" as="geometry" />
        </mxCell>
        <mxCell id="0XOMRGo27SAa32yq73o5-42" value="márka" style="ellipse;whiteSpace=wrap;html=1;" parent="1" vertex="1">
          <mxGeometry x="460" y="410" width="130" height="90" as="geometry" />
        </mxCell>
        <mxCell id="0XOMRGo27SAa32yq73o5-143" style="edgeStyle=orthogonalEdgeStyle;rounded=0;orthogonalLoop=1;jettySize=auto;html=1;exitX=0;exitY=1;exitDx=0;exitDy=0;dashed=1;entryX=0.5;entryY=1;entryDx=0;entryDy=0;" parent="1" source="0XOMRGo27SAa32yq73o5-43" target="0XOMRGo27SAa32yq73o5-76" edge="1">
          <mxGeometry relative="1" as="geometry">
            <Array as="points">
              <mxPoint x="50" y="920" />
              <mxPoint x="1430" y="920" />
            </Array>
            <mxPoint x="2420" y="580" as="targetPoint" />
          </mxGeometry>
        </mxCell>
        <mxCell id="0XOMRGo27SAa32yq73o5-144" style="edgeStyle=orthogonalEdgeStyle;rounded=0;orthogonalLoop=1;jettySize=auto;html=1;exitX=0;exitY=0.5;exitDx=0;exitDy=0;entryX=0.5;entryY=1;entryDx=0;entryDy=0;dashed=1;" parent="1" source="0XOMRGo27SAa32yq73o5-43" target="0XOMRGo27SAa32yq73o5-100" edge="1">
          <mxGeometry relative="1" as="geometry">
            <Array as="points">
              <mxPoint x="30" y="940" />
              <mxPoint x="2040" y="940" />
              <mxPoint x="2040" y="495" />
            </Array>
          </mxGeometry>
        </mxCell>
        <mxCell id="0XOMRGo27SAa32yq73o5-43" value="&lt;u&gt;&lt;font style=&quot;font-size: 12px;&quot;&gt;hajó_id&lt;/font&gt;&lt;/u&gt;" style="rhombus;whiteSpace=wrap;html=1;" parent="1" vertex="1">
          <mxGeometry x="30" y="415" width="80" height="80" as="geometry" />
        </mxCell>
        <mxCell id="0XOMRGo27SAa32yq73o5-44" value="" style="endArrow=none;html=1;rounded=0;entryX=0.5;entryY=1;entryDx=0;entryDy=0;exitX=0.5;exitY=0;exitDx=0;exitDy=0;" parent="1" source="0XOMRGo27SAa32yq73o5-43" target="0XOMRGo27SAa32yq73o5-11" edge="1">
          <mxGeometry width="50" height="50" relative="1" as="geometry">
            <mxPoint x="330" y="450" as="sourcePoint" />
            <mxPoint x="380" y="400" as="targetPoint" />
          </mxGeometry>
        </mxCell>
        <mxCell id="0XOMRGo27SAa32yq73o5-45" value="" style="endArrow=none;html=1;rounded=0;entryX=0.5;entryY=1;entryDx=0;entryDy=0;exitX=0.5;exitY=0;exitDx=0;exitDy=0;" parent="1" source="0XOMRGo27SAa32yq73o5-40" target="0XOMRGo27SAa32yq73o5-11" edge="1">
          <mxGeometry width="50" height="50" relative="1" as="geometry">
            <mxPoint x="330" y="450" as="sourcePoint" />
            <mxPoint x="380" y="400" as="targetPoint" />
          </mxGeometry>
        </mxCell>
        <mxCell id="0XOMRGo27SAa32yq73o5-46" value="" style="endArrow=none;html=1;rounded=0;entryX=0.5;entryY=1;entryDx=0;entryDy=0;exitX=0.5;exitY=0;exitDx=0;exitDy=0;" parent="1" source="0XOMRGo27SAa32yq73o5-41" target="0XOMRGo27SAa32yq73o5-11" edge="1">
          <mxGeometry width="50" height="50" relative="1" as="geometry">
            <mxPoint x="330" y="450" as="sourcePoint" />
            <mxPoint x="380" y="400" as="targetPoint" />
          </mxGeometry>
        </mxCell>
        <mxCell id="0XOMRGo27SAa32yq73o5-47" value="" style="endArrow=none;html=1;rounded=0;entryX=0.5;entryY=1;entryDx=0;entryDy=0;exitX=0.5;exitY=0;exitDx=0;exitDy=0;" parent="1" source="0XOMRGo27SAa32yq73o5-42" target="0XOMRGo27SAa32yq73o5-11" edge="1">
          <mxGeometry width="50" height="50" relative="1" as="geometry">
            <mxPoint x="330" y="450" as="sourcePoint" />
            <mxPoint x="380" y="400" as="targetPoint" />
          </mxGeometry>
        </mxCell>
        <mxCell id="0XOMRGo27SAa32yq73o5-49" value="" style="rounded=0;whiteSpace=wrap;html=1;" parent="1" vertex="1">
          <mxGeometry x="175" y="560" width="60" height="110" as="geometry" />
        </mxCell>
        <mxCell id="0XOMRGo27SAa32yq73o5-50" value="" style="endArrow=none;html=1;rounded=0;exitX=0.5;exitY=0;exitDx=0;exitDy=0;entryX=0.5;entryY=1;entryDx=0;entryDy=0;" parent="1" source="0XOMRGo27SAa32yq73o5-49" target="0XOMRGo27SAa32yq73o5-40" edge="1">
          <mxGeometry width="50" height="50" relative="1" as="geometry">
            <mxPoint x="170" y="520" as="sourcePoint" />
            <mxPoint x="220" y="470" as="targetPoint" />
          </mxGeometry>
        </mxCell>
        <mxCell id="0XOMRGo27SAa32yq73o5-51" value="" style="rounded=0;whiteSpace=wrap;html=1;" parent="1" vertex="1">
          <mxGeometry x="335" y="560" width="60" height="110" as="geometry" />
        </mxCell>
        <mxCell id="0XOMRGo27SAa32yq73o5-52" value="" style="endArrow=none;html=1;rounded=0;exitX=0.5;exitY=0;exitDx=0;exitDy=0;entryX=0.5;entryY=1;entryDx=0;entryDy=0;" parent="1" source="0XOMRGo27SAa32yq73o5-51" target="0XOMRGo27SAa32yq73o5-41" edge="1">
          <mxGeometry width="50" height="50" relative="1" as="geometry">
            <mxPoint x="330" y="520" as="sourcePoint" />
            <mxPoint x="365" y="500" as="targetPoint" />
          </mxGeometry>
        </mxCell>
        <mxCell id="0XOMRGo27SAa32yq73o5-53" value="" style="rounded=0;whiteSpace=wrap;html=1;" parent="1" vertex="1">
          <mxGeometry x="495" y="560" width="60" height="110" as="geometry" />
        </mxCell>
        <mxCell id="0XOMRGo27SAa32yq73o5-54" value="" style="endArrow=none;html=1;rounded=0;exitX=0.5;exitY=0;exitDx=0;exitDy=0;entryX=0.5;entryY=1;entryDx=0;entryDy=0;" parent="1" source="0XOMRGo27SAa32yq73o5-53" target="0XOMRGo27SAa32yq73o5-42" edge="1">
          <mxGeometry width="50" height="50" relative="1" as="geometry">
            <mxPoint x="490" y="520" as="sourcePoint" />
            <mxPoint x="525" y="500" as="targetPoint" />
          </mxGeometry>
        </mxCell>
        <mxCell id="0XOMRGo27SAa32yq73o5-55" value="típus" style="ellipse;whiteSpace=wrap;html=1;" parent="1" vertex="1">
          <mxGeometry x="840" y="405" width="130" height="90" as="geometry" />
        </mxCell>
        <mxCell id="0XOMRGo27SAa32yq73o5-56" value="&lt;u&gt;rakomány_id&lt;/u&gt;" style="rhombus;whiteSpace=wrap;html=1;" parent="1" vertex="1">
          <mxGeometry x="640" y="420" width="80" height="80" as="geometry" />
        </mxCell>
        <mxCell id="0XOMRGo27SAa32yq73o5-59" value="textil_termék" style="ellipse;whiteSpace=wrap;html=1;" parent="1" vertex="1">
          <mxGeometry x="685" y="560" width="130" height="90" as="geometry" />
        </mxCell>
        <mxCell id="0XOMRGo27SAa32yq73o5-60" value="étel_alapanyag" style="ellipse;whiteSpace=wrap;html=1;" parent="1" vertex="1">
          <mxGeometry x="840" y="560" width="130" height="90" as="geometry" />
        </mxCell>
        <mxCell id="0XOMRGo27SAa32yq73o5-61" value="jármű" style="ellipse;whiteSpace=wrap;html=1;" parent="1" vertex="1">
          <mxGeometry x="995" y="560" width="130" height="90" as="geometry" />
        </mxCell>
        <mxCell id="0XOMRGo27SAa32yq73o5-62" value="" style="endArrow=none;html=1;rounded=0;entryX=0.5;entryY=1;entryDx=0;entryDy=0;exitX=0.5;exitY=0;exitDx=0;exitDy=0;" parent="1" source="0XOMRGo27SAa32yq73o5-59" target="0XOMRGo27SAa32yq73o5-55" edge="1">
          <mxGeometry width="50" height="50" relative="1" as="geometry">
            <mxPoint x="875" y="570" as="sourcePoint" />
            <mxPoint x="925" y="520" as="targetPoint" />
          </mxGeometry>
        </mxCell>
        <mxCell id="0XOMRGo27SAa32yq73o5-63" value="" style="endArrow=none;html=1;rounded=0;entryX=0.5;entryY=1;entryDx=0;entryDy=0;exitX=0.5;exitY=0;exitDx=0;exitDy=0;" parent="1" source="0XOMRGo27SAa32yq73o5-60" target="0XOMRGo27SAa32yq73o5-55" edge="1">
          <mxGeometry width="50" height="50" relative="1" as="geometry">
            <mxPoint x="875" y="570" as="sourcePoint" />
            <mxPoint x="925" y="520" as="targetPoint" />
          </mxGeometry>
        </mxCell>
        <mxCell id="0XOMRGo27SAa32yq73o5-64" value="" style="endArrow=none;html=1;rounded=0;entryX=0.5;entryY=1;entryDx=0;entryDy=0;exitX=0.5;exitY=0;exitDx=0;exitDy=0;" parent="1" source="0XOMRGo27SAa32yq73o5-61" target="0XOMRGo27SAa32yq73o5-55" edge="1">
          <mxGeometry width="50" height="50" relative="1" as="geometry">
            <mxPoint x="875" y="570" as="sourcePoint" />
            <mxPoint x="925" y="520" as="targetPoint" />
          </mxGeometry>
        </mxCell>
        <mxCell id="0XOMRGo27SAa32yq73o5-65" value="" style="rounded=0;whiteSpace=wrap;html=1;" parent="1" vertex="1">
          <mxGeometry x="720" y="710" width="60" height="110" as="geometry" />
        </mxCell>
        <mxCell id="0XOMRGo27SAa32yq73o5-66" value="" style="endArrow=none;html=1;rounded=0;exitX=0.5;exitY=0;exitDx=0;exitDy=0;entryX=0.5;entryY=1;entryDx=0;entryDy=0;" parent="1" source="0XOMRGo27SAa32yq73o5-65" target="0XOMRGo27SAa32yq73o5-59" edge="1">
          <mxGeometry width="50" height="50" relative="1" as="geometry">
            <mxPoint x="715" y="670" as="sourcePoint" />
            <mxPoint x="750" y="650" as="targetPoint" />
          </mxGeometry>
        </mxCell>
        <mxCell id="0XOMRGo27SAa32yq73o5-67" value="" style="rounded=0;whiteSpace=wrap;html=1;" parent="1" vertex="1">
          <mxGeometry x="875" y="710" width="60" height="110" as="geometry" />
        </mxCell>
        <mxCell id="0XOMRGo27SAa32yq73o5-68" value="" style="endArrow=none;html=1;rounded=0;exitX=0.5;exitY=0;exitDx=0;exitDy=0;entryX=0.5;entryY=1;entryDx=0;entryDy=0;" parent="1" source="0XOMRGo27SAa32yq73o5-67" target="0XOMRGo27SAa32yq73o5-60" edge="1">
          <mxGeometry width="50" height="50" relative="1" as="geometry">
            <mxPoint x="870" y="670" as="sourcePoint" />
            <mxPoint x="905" y="650" as="targetPoint" />
          </mxGeometry>
        </mxCell>
        <mxCell id="0XOMRGo27SAa32yq73o5-69" value="" style="rounded=0;whiteSpace=wrap;html=1;" parent="1" vertex="1">
          <mxGeometry x="1030" y="710" width="60" height="110" as="geometry" />
        </mxCell>
        <mxCell id="0XOMRGo27SAa32yq73o5-70" value="" style="endArrow=none;html=1;rounded=0;exitX=0.5;exitY=0;exitDx=0;exitDy=0;entryX=0.5;entryY=1;entryDx=0;entryDy=0;" parent="1" source="0XOMRGo27SAa32yq73o5-69" target="0XOMRGo27SAa32yq73o5-61" edge="1">
          <mxGeometry width="50" height="50" relative="1" as="geometry">
            <mxPoint x="1025" y="670" as="sourcePoint" />
            <mxPoint x="1060" y="650" as="targetPoint" />
          </mxGeometry>
        </mxCell>
        <mxCell id="0XOMRGo27SAa32yq73o5-71" value="" style="endArrow=none;html=1;rounded=0;entryX=0.5;entryY=1;entryDx=0;entryDy=0;exitX=0.5;exitY=0;exitDx=0;exitDy=0;" parent="1" source="0XOMRGo27SAa32yq73o5-56" target="0XOMRGo27SAa32yq73o5-5" edge="1">
          <mxGeometry width="50" height="50" relative="1" as="geometry">
            <mxPoint x="875" y="570" as="sourcePoint" />
            <mxPoint x="925" y="520" as="targetPoint" />
          </mxGeometry>
        </mxCell>
        <mxCell id="0XOMRGo27SAa32yq73o5-72" value="" style="endArrow=none;html=1;rounded=0;entryX=0.5;entryY=1;entryDx=0;entryDy=0;exitX=0.5;exitY=0;exitDx=0;exitDy=0;" parent="1" source="0XOMRGo27SAa32yq73o5-55" target="0XOMRGo27SAa32yq73o5-5" edge="1">
          <mxGeometry width="50" height="50" relative="1" as="geometry">
            <mxPoint x="875" y="570" as="sourcePoint" />
            <mxPoint x="925" y="520" as="targetPoint" />
          </mxGeometry>
        </mxCell>
        <mxCell id="0XOMRGo27SAa32yq73o5-73" value="név" style="ellipse;whiteSpace=wrap;html=1;" parent="1" vertex="1">
          <mxGeometry x="1500" y="410" width="130" height="90" as="geometry" />
        </mxCell>
        <mxCell id="0XOMRGo27SAa32yq73o5-74" value="nemzetiség" style="ellipse;whiteSpace=wrap;html=1;" parent="1" vertex="1">
          <mxGeometry x="1660" y="410" width="130" height="90" as="geometry" />
        </mxCell>
        <mxCell id="0XOMRGo27SAa32yq73o5-75" value="születési_dátum" style="ellipse;whiteSpace=wrap;html=1;" parent="1" vertex="1">
          <mxGeometry x="1820" y="410" width="130" height="90" as="geometry" />
        </mxCell>
        <mxCell id="0XOMRGo27SAa32yq73o5-76" value="kapitány_id" style="rhombus;whiteSpace=wrap;html=1;" parent="1" vertex="1">
          <mxGeometry x="1390" y="415" width="80" height="80" as="geometry" />
        </mxCell>
        <mxCell id="0XOMRGo27SAa32yq73o5-77" value="" style="rounded=0;whiteSpace=wrap;html=1;" parent="1" vertex="1">
          <mxGeometry x="1535" y="560" width="60" height="110" as="geometry" />
        </mxCell>
        <mxCell id="0XOMRGo27SAa32yq73o5-78" value="" style="endArrow=none;html=1;rounded=0;exitX=0.5;exitY=0;exitDx=0;exitDy=0;entryX=0.5;entryY=1;entryDx=0;entryDy=0;" parent="1" source="0XOMRGo27SAa32yq73o5-77" target="0XOMRGo27SAa32yq73o5-73" edge="1">
          <mxGeometry width="50" height="50" relative="1" as="geometry">
            <mxPoint x="1530" y="520" as="sourcePoint" />
            <mxPoint x="1580" y="470" as="targetPoint" />
          </mxGeometry>
        </mxCell>
        <mxCell id="0XOMRGo27SAa32yq73o5-79" value="" style="rounded=0;whiteSpace=wrap;html=1;" parent="1" vertex="1">
          <mxGeometry x="1695" y="560" width="60" height="110" as="geometry" />
        </mxCell>
        <mxCell id="0XOMRGo27SAa32yq73o5-80" value="" style="endArrow=none;html=1;rounded=0;exitX=0.5;exitY=0;exitDx=0;exitDy=0;entryX=0.5;entryY=1;entryDx=0;entryDy=0;" parent="1" source="0XOMRGo27SAa32yq73o5-79" target="0XOMRGo27SAa32yq73o5-74" edge="1">
          <mxGeometry width="50" height="50" relative="1" as="geometry">
            <mxPoint x="1690" y="520" as="sourcePoint" />
            <mxPoint x="1725" y="500" as="targetPoint" />
          </mxGeometry>
        </mxCell>
        <mxCell id="0XOMRGo27SAa32yq73o5-81" value="" style="rounded=0;whiteSpace=wrap;html=1;" parent="1" vertex="1">
          <mxGeometry x="1855" y="560" width="60" height="110" as="geometry" />
        </mxCell>
        <mxCell id="0XOMRGo27SAa32yq73o5-82" value="" style="endArrow=none;html=1;rounded=0;exitX=0.5;exitY=0;exitDx=0;exitDy=0;entryX=0.5;entryY=1;entryDx=0;entryDy=0;" parent="1" source="0XOMRGo27SAa32yq73o5-81" target="0XOMRGo27SAa32yq73o5-75" edge="1">
          <mxGeometry width="50" height="50" relative="1" as="geometry">
            <mxPoint x="1850" y="520" as="sourcePoint" />
            <mxPoint x="1885" y="500" as="targetPoint" />
          </mxGeometry>
        </mxCell>
        <mxCell id="0XOMRGo27SAa32yq73o5-83" value="" style="endArrow=none;html=1;rounded=0;entryX=0.5;entryY=1;entryDx=0;entryDy=0;exitX=0.5;exitY=0;exitDx=0;exitDy=0;" parent="1" source="0XOMRGo27SAa32yq73o5-76" target="0XOMRGo27SAa32yq73o5-4" edge="1">
          <mxGeometry width="50" height="50" relative="1" as="geometry">
            <mxPoint x="1600" y="470" as="sourcePoint" />
            <mxPoint x="1650" y="420" as="targetPoint" />
          </mxGeometry>
        </mxCell>
        <mxCell id="0XOMRGo27SAa32yq73o5-84" value="" style="endArrow=none;html=1;rounded=0;entryX=0.5;entryY=1;entryDx=0;entryDy=0;exitX=0.5;exitY=0;exitDx=0;exitDy=0;" parent="1" source="0XOMRGo27SAa32yq73o5-73" target="0XOMRGo27SAa32yq73o5-4" edge="1">
          <mxGeometry width="50" height="50" relative="1" as="geometry">
            <mxPoint x="1600" y="470" as="sourcePoint" />
            <mxPoint x="1650" y="420" as="targetPoint" />
          </mxGeometry>
        </mxCell>
        <mxCell id="0XOMRGo27SAa32yq73o5-85" value="" style="endArrow=none;html=1;rounded=0;entryX=0.5;entryY=1;entryDx=0;entryDy=0;exitX=0.5;exitY=0;exitDx=0;exitDy=0;" parent="1" source="0XOMRGo27SAa32yq73o5-74" target="0XOMRGo27SAa32yq73o5-4" edge="1">
          <mxGeometry width="50" height="50" relative="1" as="geometry">
            <mxPoint x="1600" y="470" as="sourcePoint" />
            <mxPoint x="1650" y="420" as="targetPoint" />
          </mxGeometry>
        </mxCell>
        <mxCell id="0XOMRGo27SAa32yq73o5-86" value="" style="endArrow=none;html=1;rounded=0;entryX=0.5;entryY=1;entryDx=0;entryDy=0;exitX=0.5;exitY=0;exitDx=0;exitDy=0;" parent="1" source="0XOMRGo27SAa32yq73o5-75" target="0XOMRGo27SAa32yq73o5-4" edge="1">
          <mxGeometry width="50" height="50" relative="1" as="geometry">
            <mxPoint x="1600" y="470" as="sourcePoint" />
            <mxPoint x="1650" y="420" as="targetPoint" />
          </mxGeometry>
        </mxCell>
        <mxCell id="0XOMRGo27SAa32yq73o5-87" value="indulás_idő" style="ellipse;whiteSpace=wrap;html=1;" parent="1" vertex="1">
          <mxGeometry x="2110" y="420" width="130" height="90" as="geometry" />
        </mxCell>
        <mxCell id="0XOMRGo27SAa32yq73o5-88" value="érkezés_idő" style="ellipse;whiteSpace=wrap;html=1;" parent="1" vertex="1">
          <mxGeometry x="2270" y="420" width="130" height="90" as="geometry" />
        </mxCell>
        <mxCell id="0XOMRGo27SAa32yq73o5-90" value="" style="rounded=0;whiteSpace=wrap;html=1;" parent="1" vertex="1">
          <mxGeometry x="2145" y="560" width="60" height="110" as="geometry" />
        </mxCell>
        <mxCell id="0XOMRGo27SAa32yq73o5-91" value="" style="endArrow=none;html=1;rounded=0;exitX=0.5;exitY=0;exitDx=0;exitDy=0;entryX=0.5;entryY=1;entryDx=0;entryDy=0;" parent="1" source="0XOMRGo27SAa32yq73o5-90" target="0XOMRGo27SAa32yq73o5-87" edge="1">
          <mxGeometry width="50" height="50" relative="1" as="geometry">
            <mxPoint x="2140" y="520" as="sourcePoint" />
            <mxPoint x="2190" y="470" as="targetPoint" />
          </mxGeometry>
        </mxCell>
        <mxCell id="0XOMRGo27SAa32yq73o5-92" value="" style="rounded=0;whiteSpace=wrap;html=1;" parent="1" vertex="1">
          <mxGeometry x="2305" y="560" width="60" height="110" as="geometry" />
        </mxCell>
        <mxCell id="0XOMRGo27SAa32yq73o5-93" value="" style="endArrow=none;html=1;rounded=0;exitX=0.5;exitY=0;exitDx=0;exitDy=0;entryX=0.5;entryY=1;entryDx=0;entryDy=0;" parent="1" source="0XOMRGo27SAa32yq73o5-92" target="0XOMRGo27SAa32yq73o5-88" edge="1">
          <mxGeometry width="50" height="50" relative="1" as="geometry">
            <mxPoint x="2300" y="520" as="sourcePoint" />
            <mxPoint x="2335" y="500" as="targetPoint" />
          </mxGeometry>
        </mxCell>
        <mxCell id="0XOMRGo27SAa32yq73o5-96" value="" style="endArrow=none;html=1;rounded=0;entryX=0.5;entryY=1;entryDx=0;entryDy=0;exitX=0.5;exitY=0;exitDx=0;exitDy=0;" parent="1" source="0XOMRGo27SAa32yq73o5-87" target="0XOMRGo27SAa32yq73o5-7" edge="1">
          <mxGeometry width="50" height="50" relative="1" as="geometry">
            <mxPoint x="2140" y="460" as="sourcePoint" />
            <mxPoint x="2190" y="410" as="targetPoint" />
          </mxGeometry>
        </mxCell>
        <mxCell id="0XOMRGo27SAa32yq73o5-97" value="" style="endArrow=none;html=1;rounded=0;entryX=0.5;entryY=1;entryDx=0;entryDy=0;exitX=0.5;exitY=0;exitDx=0;exitDy=0;" parent="1" source="0XOMRGo27SAa32yq73o5-88" target="0XOMRGo27SAa32yq73o5-7" edge="1">
          <mxGeometry width="50" height="50" relative="1" as="geometry">
            <mxPoint x="2140" y="460" as="sourcePoint" />
            <mxPoint x="2190" y="410" as="targetPoint" />
          </mxGeometry>
        </mxCell>
        <mxCell id="0XOMRGo27SAa32yq73o5-100" value="fkhajó_id" style="rhombus;whiteSpace=wrap;html=1;" parent="1" vertex="1">
          <mxGeometry x="2000" y="420" width="80" height="80" as="geometry" />
        </mxCell>
        <mxCell id="0XOMRGo27SAa32yq73o5-101" value="fkút_id" style="rhombus;whiteSpace=wrap;html=1;" parent="1" vertex="1">
          <mxGeometry x="2430" y="420" width="80" height="80" as="geometry" />
        </mxCell>
        <mxCell id="0XOMRGo27SAa32yq73o5-102" value="" style="endArrow=none;html=1;rounded=0;exitX=0.5;exitY=0;exitDx=0;exitDy=0;entryX=0.5;entryY=1;entryDx=0;entryDy=0;" parent="1" source="0XOMRGo27SAa32yq73o5-100" target="0XOMRGo27SAa32yq73o5-7" edge="1">
          <mxGeometry width="50" height="50" relative="1" as="geometry">
            <mxPoint x="2350" y="530" as="sourcePoint" />
            <mxPoint x="2400" y="480" as="targetPoint" />
          </mxGeometry>
        </mxCell>
        <mxCell id="0XOMRGo27SAa32yq73o5-103" value="" style="endArrow=none;html=1;rounded=0;entryX=0.5;entryY=1;entryDx=0;entryDy=0;exitX=0.5;exitY=0;exitDx=0;exitDy=0;" parent="1" source="0XOMRGo27SAa32yq73o5-101" target="0XOMRGo27SAa32yq73o5-7" edge="1">
          <mxGeometry width="50" height="50" relative="1" as="geometry">
            <mxPoint x="2350" y="530" as="sourcePoint" />
            <mxPoint x="2400" y="480" as="targetPoint" />
          </mxGeometry>
        </mxCell>
        <mxCell id="0XOMRGo27SAa32yq73o5-104" value="út_hossz" style="ellipse;whiteSpace=wrap;html=1;" parent="1" vertex="1">
          <mxGeometry x="2727.5" y="415" width="130" height="90" as="geometry" />
        </mxCell>
        <mxCell id="0XOMRGo27SAa32yq73o5-145" style="edgeStyle=orthogonalEdgeStyle;rounded=0;orthogonalLoop=1;jettySize=auto;html=1;exitX=0;exitY=1;exitDx=0;exitDy=0;entryX=0.5;entryY=1;entryDx=0;entryDy=0;dashed=1;" parent="1" source="0XOMRGo27SAa32yq73o5-105" target="0XOMRGo27SAa32yq73o5-101" edge="1">
          <mxGeometry relative="1" as="geometry">
            <Array as="points">
              <mxPoint x="2580" y="940" />
              <mxPoint x="2470" y="940" />
            </Array>
          </mxGeometry>
        </mxCell>
        <mxCell id="0XOMRGo27SAa32yq73o5-146" style="edgeStyle=orthogonalEdgeStyle;rounded=0;orthogonalLoop=1;jettySize=auto;html=1;exitX=1;exitY=1;exitDx=0;exitDy=0;entryX=0.5;entryY=1;entryDx=0;entryDy=0;dashed=1;" parent="1" source="0XOMRGo27SAa32yq73o5-105" target="0XOMRGo27SAa32yq73o5-116" edge="1">
          <mxGeometry relative="1" as="geometry">
            <Array as="points">
              <mxPoint x="2600" y="480" />
              <mxPoint x="2600" y="940" />
              <mxPoint x="2940" y="940" />
            </Array>
          </mxGeometry>
        </mxCell>
        <mxCell id="0XOMRGo27SAa32yq73o5-105" value="&lt;u&gt;út_id&lt;/u&gt;" style="rhombus;whiteSpace=wrap;html=1;" parent="1" vertex="1">
          <mxGeometry x="2560" y="420" width="80" height="80" as="geometry" />
        </mxCell>
        <mxCell id="0XOMRGo27SAa32yq73o5-106" value="" style="endArrow=none;html=1;rounded=0;entryX=0.5;entryY=1;entryDx=0;entryDy=0;exitX=0.5;exitY=0;exitDx=0;exitDy=0;" parent="1" source="0XOMRGo27SAa32yq73o5-105" target="0XOMRGo27SAa32yq73o5-6" edge="1">
          <mxGeometry width="50" height="50" relative="1" as="geometry">
            <mxPoint x="2633.75" y="640" as="sourcePoint" />
            <mxPoint x="2683.75" y="590" as="targetPoint" />
          </mxGeometry>
        </mxCell>
        <mxCell id="0XOMRGo27SAa32yq73o5-107" value="" style="endArrow=none;html=1;rounded=0;entryX=0.5;entryY=1;entryDx=0;entryDy=0;exitX=0.5;exitY=0;exitDx=0;exitDy=0;" parent="1" source="0XOMRGo27SAa32yq73o5-104" target="0XOMRGo27SAa32yq73o5-6" edge="1">
          <mxGeometry width="50" height="50" relative="1" as="geometry">
            <mxPoint x="2633.75" y="640" as="sourcePoint" />
            <mxPoint x="2683.75" y="590" as="targetPoint" />
          </mxGeometry>
        </mxCell>
        <mxCell id="0XOMRGo27SAa32yq73o5-108" value="" style="rounded=0;whiteSpace=wrap;html=1;" parent="1" vertex="1">
          <mxGeometry x="2762.5" y="560" width="60" height="110" as="geometry" />
        </mxCell>
        <mxCell id="0XOMRGo27SAa32yq73o5-109" value="" style="endArrow=none;html=1;rounded=0;exitX=0.5;exitY=0;exitDx=0;exitDy=0;entryX=0.5;entryY=1;entryDx=0;entryDy=0;" parent="1" source="0XOMRGo27SAa32yq73o5-108" target="0XOMRGo27SAa32yq73o5-104" edge="1">
          <mxGeometry width="50" height="50" relative="1" as="geometry">
            <mxPoint x="2757.5" y="520" as="sourcePoint" />
            <mxPoint x="2792.5" y="500" as="targetPoint" />
          </mxGeometry>
        </mxCell>
        <mxCell id="0XOMRGo27SAa32yq73o5-116" value="fkút_id" style="rhombus;whiteSpace=wrap;html=1;" parent="1" vertex="1">
          <mxGeometry x="2900" y="410" width="80" height="80" as="geometry" />
        </mxCell>
        <mxCell id="0XOMRGo27SAa32yq73o5-117" value="fkke_id" style="rhombus;whiteSpace=wrap;html=1;" parent="1" vertex="1">
          <mxGeometry x="3190" y="415" width="80" height="80" as="geometry" />
        </mxCell>
        <mxCell id="0XOMRGo27SAa32yq73o5-118" value="" style="endArrow=none;html=1;rounded=0;entryX=0.5;entryY=0;entryDx=0;entryDy=0;exitX=0.5;exitY=1;exitDx=0;exitDy=0;" parent="1" source="0XOMRGo27SAa32yq73o5-9" target="0XOMRGo27SAa32yq73o5-116" edge="1">
          <mxGeometry width="50" height="50" relative="1" as="geometry">
            <mxPoint x="2870" y="540" as="sourcePoint" />
            <mxPoint x="2920" y="490" as="targetPoint" />
          </mxGeometry>
        </mxCell>
        <mxCell id="0XOMRGo27SAa32yq73o5-119" value="" style="endArrow=none;html=1;rounded=0;exitX=0.5;exitY=0;exitDx=0;exitDy=0;entryX=0.5;entryY=1;entryDx=0;entryDy=0;" parent="1" source="oOXBF6BJ19eOA0BiOxPo-10" target="0XOMRGo27SAa32yq73o5-9" edge="1">
          <mxGeometry width="50" height="50" relative="1" as="geometry">
            <mxPoint x="3075" y="410" as="sourcePoint" />
            <mxPoint x="2920" y="490" as="targetPoint" />
          </mxGeometry>
        </mxCell>
        <mxCell id="0XOMRGo27SAa32yq73o5-121" value="" style="endArrow=none;html=1;rounded=0;exitX=0.5;exitY=0;exitDx=0;exitDy=0;entryX=0.5;entryY=1;entryDx=0;entryDy=0;" parent="1" source="0XOMRGo27SAa32yq73o5-117" target="0XOMRGo27SAa32yq73o5-9" edge="1">
          <mxGeometry width="50" height="50" relative="1" as="geometry">
            <mxPoint x="2870" y="540" as="sourcePoint" />
            <mxPoint x="2920" y="490" as="targetPoint" />
          </mxGeometry>
        </mxCell>
        <mxCell id="0XOMRGo27SAa32yq73o5-122" value="helység" style="ellipse;whiteSpace=wrap;html=1;" parent="1" vertex="1">
          <mxGeometry x="3610" y="405" width="130" height="90" as="geometry" />
        </mxCell>
        <mxCell id="0XOMRGo27SAa32yq73o5-123" value="város" style="ellipse;whiteSpace=wrap;html=1;" parent="1" vertex="1">
          <mxGeometry x="3532.5" y="560" width="130" height="90" as="geometry" />
        </mxCell>
        <mxCell id="0XOMRGo27SAa32yq73o5-124" value="ország" style="ellipse;whiteSpace=wrap;html=1;" parent="1" vertex="1">
          <mxGeometry x="3687.5" y="560" width="130" height="90" as="geometry" />
        </mxCell>
        <mxCell id="0XOMRGo27SAa32yq73o5-126" value="" style="endArrow=none;html=1;rounded=0;entryX=0.5;entryY=1;entryDx=0;entryDy=0;exitX=0.5;exitY=0;exitDx=0;exitDy=0;" parent="1" source="0XOMRGo27SAa32yq73o5-123" target="0XOMRGo27SAa32yq73o5-122" edge="1">
          <mxGeometry width="50" height="50" relative="1" as="geometry">
            <mxPoint x="3645" y="565" as="sourcePoint" />
            <mxPoint x="3695" y="515" as="targetPoint" />
          </mxGeometry>
        </mxCell>
        <mxCell id="0XOMRGo27SAa32yq73o5-127" value="" style="endArrow=none;html=1;rounded=0;entryX=0.5;entryY=1;entryDx=0;entryDy=0;exitX=0.5;exitY=0;exitDx=0;exitDy=0;" parent="1" source="0XOMRGo27SAa32yq73o5-124" target="0XOMRGo27SAa32yq73o5-122" edge="1">
          <mxGeometry width="50" height="50" relative="1" as="geometry">
            <mxPoint x="3645" y="565" as="sourcePoint" />
            <mxPoint x="3695" y="515" as="targetPoint" />
          </mxGeometry>
        </mxCell>
        <mxCell id="0XOMRGo27SAa32yq73o5-129" value="" style="rounded=0;whiteSpace=wrap;html=1;" parent="1" vertex="1">
          <mxGeometry x="3567.5" y="710" width="60" height="110" as="geometry" />
        </mxCell>
        <mxCell id="0XOMRGo27SAa32yq73o5-130" value="" style="endArrow=none;html=1;rounded=0;exitX=0.5;exitY=0;exitDx=0;exitDy=0;entryX=0.5;entryY=1;entryDx=0;entryDy=0;" parent="1" source="0XOMRGo27SAa32yq73o5-129" target="0XOMRGo27SAa32yq73o5-123" edge="1">
          <mxGeometry width="50" height="50" relative="1" as="geometry">
            <mxPoint x="3562.5" y="670" as="sourcePoint" />
            <mxPoint x="3597.5" y="650" as="targetPoint" />
          </mxGeometry>
        </mxCell>
        <mxCell id="0XOMRGo27SAa32yq73o5-131" value="" style="rounded=0;whiteSpace=wrap;html=1;" parent="1" vertex="1">
          <mxGeometry x="3722.5" y="710" width="60" height="110" as="geometry" />
        </mxCell>
        <mxCell id="0XOMRGo27SAa32yq73o5-132" value="" style="endArrow=none;html=1;rounded=0;exitX=0.5;exitY=0;exitDx=0;exitDy=0;entryX=0.5;entryY=1;entryDx=0;entryDy=0;" parent="1" source="0XOMRGo27SAa32yq73o5-131" target="0XOMRGo27SAa32yq73o5-124" edge="1">
          <mxGeometry width="50" height="50" relative="1" as="geometry">
            <mxPoint x="3717.5" y="670" as="sourcePoint" />
            <mxPoint x="3752.5" y="650" as="targetPoint" />
          </mxGeometry>
        </mxCell>
        <mxCell id="0XOMRGo27SAa32yq73o5-147" style="edgeStyle=orthogonalEdgeStyle;rounded=0;orthogonalLoop=1;jettySize=auto;html=1;entryX=0.5;entryY=1;entryDx=0;entryDy=0;dashed=1;exitX=0;exitY=1;exitDx=0;exitDy=0;" parent="1" source="0XOMRGo27SAa32yq73o5-135" target="0XOMRGo27SAa32yq73o5-117" edge="1">
          <mxGeometry relative="1" as="geometry">
            <Array as="points">
              <mxPoint x="3480" y="930" />
              <mxPoint x="3230" y="930" />
            </Array>
          </mxGeometry>
        </mxCell>
        <mxCell id="oOXBF6BJ19eOA0BiOxPo-11" style="edgeStyle=orthogonalEdgeStyle;rounded=0;orthogonalLoop=1;jettySize=auto;html=1;exitX=1;exitY=1;exitDx=0;exitDy=0;entryX=0.5;entryY=1;entryDx=0;entryDy=0;dashed=1;" edge="1" parent="1" source="0XOMRGo27SAa32yq73o5-135" target="oOXBF6BJ19eOA0BiOxPo-10">
          <mxGeometry relative="1" as="geometry">
            <Array as="points">
              <mxPoint x="3520" y="940" />
              <mxPoint x="3100" y="940" />
            </Array>
          </mxGeometry>
        </mxCell>
        <mxCell id="0XOMRGo27SAa32yq73o5-135" value="kikötő_id" style="rhombus;whiteSpace=wrap;html=1;" parent="1" vertex="1">
          <mxGeometry x="3460" y="405" width="80" height="80" as="geometry" />
        </mxCell>
        <mxCell id="0XOMRGo27SAa32yq73o5-136" value="hajó_férőhely" style="ellipse;whiteSpace=wrap;html=1;" parent="1" vertex="1">
          <mxGeometry x="3810" y="405" width="130" height="90" as="geometry" />
        </mxCell>
        <mxCell id="0XOMRGo27SAa32yq73o5-137" value="" style="endArrow=none;html=1;rounded=0;entryX=0.5;entryY=0;entryDx=0;entryDy=0;exitX=0.5;exitY=1;exitDx=0;exitDy=0;" parent="1" source="0XOMRGo27SAa32yq73o5-8" target="0XOMRGo27SAa32yq73o5-135" edge="1">
          <mxGeometry width="50" height="50" relative="1" as="geometry">
            <mxPoint x="3390" y="630" as="sourcePoint" />
            <mxPoint x="3440" y="580" as="targetPoint" />
          </mxGeometry>
        </mxCell>
        <mxCell id="0XOMRGo27SAa32yq73o5-138" value="" style="endArrow=none;html=1;rounded=0;entryX=0.5;entryY=0;entryDx=0;entryDy=0;exitX=0.5;exitY=1;exitDx=0;exitDy=0;" parent="1" source="0XOMRGo27SAa32yq73o5-8" target="0XOMRGo27SAa32yq73o5-122" edge="1">
          <mxGeometry width="50" height="50" relative="1" as="geometry">
            <mxPoint x="3390" y="630" as="sourcePoint" />
            <mxPoint x="3440" y="580" as="targetPoint" />
          </mxGeometry>
        </mxCell>
        <mxCell id="0XOMRGo27SAa32yq73o5-139" value="" style="endArrow=none;html=1;rounded=0;entryX=0.5;entryY=0;entryDx=0;entryDy=0;exitX=0.5;exitY=1;exitDx=0;exitDy=0;" parent="1" source="0XOMRGo27SAa32yq73o5-8" target="0XOMRGo27SAa32yq73o5-136" edge="1">
          <mxGeometry width="50" height="50" relative="1" as="geometry">
            <mxPoint x="3390" y="630" as="sourcePoint" />
            <mxPoint x="3440" y="580" as="targetPoint" />
          </mxGeometry>
        </mxCell>
        <mxCell id="0XOMRGo27SAa32yq73o5-149" value="" style="endArrow=none;html=1;rounded=0;exitX=0.5;exitY=0;exitDx=0;exitDy=0;entryX=0.5;entryY=1;entryDx=0;entryDy=0;" parent="1" source="cz-wSJssra2vG6t74JOT-1" target="0XOMRGo27SAa32yq73o5-5" edge="1">
          <mxGeometry width="50" height="50" relative="1" as="geometry">
            <mxPoint x="1165" y="410" as="sourcePoint" />
            <mxPoint x="1265" y="390" as="targetPoint" />
          </mxGeometry>
        </mxCell>
        <mxCell id="cz-wSJssra2vG6t74JOT-1" value="súly" style="ellipse;whiteSpace=wrap;html=1;" parent="1" vertex="1">
          <mxGeometry x="1060" y="405" width="130" height="90" as="geometry" />
        </mxCell>
        <mxCell id="cz-wSJssra2vG6t74JOT-28" style="edgeStyle=orthogonalEdgeStyle;rounded=0;orthogonalLoop=1;jettySize=auto;html=1;entryX=0.5;entryY=1;entryDx=0;entryDy=0;dashed=1;" parent="1" source="cz-wSJssra2vG6t74JOT-22" target="0XOMRGo27SAa32yq73o5-43" edge="1">
          <mxGeometry relative="1" as="geometry">
            <Array as="points">
              <mxPoint x="1270" y="900" />
              <mxPoint x="70" y="900" />
            </Array>
          </mxGeometry>
        </mxCell>
        <mxCell id="cz-wSJssra2vG6t74JOT-22" value="fkhajó_id" style="rhombus;whiteSpace=wrap;fontStyle=0;horizontal=1;labelBorderColor=none;labelBackgroundColor=none;html=1;" parent="1" vertex="1">
          <mxGeometry x="1230" y="415" width="80" height="80" as="geometry" />
        </mxCell>
        <mxCell id="cz-wSJssra2vG6t74JOT-23" value="" style="endArrow=none;html=1;rounded=0;entryX=0.5;entryY=1;entryDx=0;entryDy=0;exitX=0.5;exitY=0;exitDx=0;exitDy=0;" parent="1" source="cz-wSJssra2vG6t74JOT-22" target="0XOMRGo27SAa32yq73o5-5" edge="1">
          <mxGeometry width="50" height="50" relative="1" as="geometry">
            <mxPoint x="1395" y="450" as="sourcePoint" />
            <mxPoint x="1445" y="400" as="targetPoint" />
          </mxGeometry>
        </mxCell>
        <mxCell id="oOXBF6BJ19eOA0BiOxPo-1" value="étel_alapanyag" style="ellipse;whiteSpace=wrap;html=1;" vertex="1" parent="1">
          <mxGeometry x="846.25" y="565" width="117.5" height="80" as="geometry" />
        </mxCell>
        <mxCell id="oOXBF6BJ19eOA0BiOxPo-4" value="" style="endArrow=none;dashed=1;html=1;rounded=0;exitX=0.25;exitY=0.559;exitDx=0;exitDy=0;exitPerimeter=0;" edge="1" parent="1">
          <mxGeometry width="50" height="50" relative="1" as="geometry">
            <mxPoint x="1247" y="462" as="sourcePoint" />
            <mxPoint x="1294" y="462" as="targetPoint" />
          </mxGeometry>
        </mxCell>
        <mxCell id="oOXBF6BJ19eOA0BiOxPo-5" value="" style="endArrow=none;dashed=1;html=1;rounded=0;exitX=0.25;exitY=0.559;exitDx=0;exitDy=0;exitPerimeter=0;" edge="1" parent="1">
          <mxGeometry width="50" height="50" relative="1" as="geometry">
            <mxPoint x="2920" y="458" as="sourcePoint" />
            <mxPoint x="2960" y="458" as="targetPoint" />
          </mxGeometry>
        </mxCell>
        <mxCell id="oOXBF6BJ19eOA0BiOxPo-6" value="" style="endArrow=none;dashed=1;html=1;rounded=0;exitX=0.25;exitY=0.559;exitDx=0;exitDy=0;exitPerimeter=0;" edge="1" parent="1">
          <mxGeometry width="50" height="50" relative="1" as="geometry">
            <mxPoint x="3203" y="464" as="sourcePoint" />
            <mxPoint x="3257" y="464" as="targetPoint" />
          </mxGeometry>
        </mxCell>
        <mxCell id="oOXBF6BJ19eOA0BiOxPo-7" value="" style="endArrow=none;dashed=1;html=1;rounded=0;exitX=0.25;exitY=0.559;exitDx=0;exitDy=0;exitPerimeter=0;" edge="1" parent="1">
          <mxGeometry width="50" height="50" relative="1" as="geometry">
            <mxPoint x="2017" y="468" as="sourcePoint" />
            <mxPoint x="2064" y="468" as="targetPoint" />
          </mxGeometry>
        </mxCell>
        <mxCell id="oOXBF6BJ19eOA0BiOxPo-8" value="" style="endArrow=none;dashed=1;html=1;rounded=0;exitX=0.25;exitY=0.559;exitDx=0;exitDy=0;exitPerimeter=0;" edge="1" parent="1">
          <mxGeometry width="50" height="50" relative="1" as="geometry">
            <mxPoint x="2450" y="468" as="sourcePoint" />
            <mxPoint x="2490" y="468" as="targetPoint" />
          </mxGeometry>
        </mxCell>
        <mxCell id="oOXBF6BJ19eOA0BiOxPo-10" value="fkki_id" style="rhombus;whiteSpace=wrap;html=1;" vertex="1" parent="1">
          <mxGeometry x="3060" y="415" width="80" height="80" as="geometry" />
        </mxCell>
        <mxCell id="oOXBF6BJ19eOA0BiOxPo-12" value="" style="endArrow=none;dashed=1;html=1;rounded=0;exitX=0.25;exitY=0.559;exitDx=0;exitDy=0;exitPerimeter=0;" edge="1" parent="1">
          <mxGeometry width="50" height="50" relative="1" as="geometry">
            <mxPoint x="3073" y="464.66" as="sourcePoint" />
            <mxPoint x="3127" y="464.66" as="targetPoint" />
          </mxGeometry>
        </mxCell>
      </root>
    </mxGraphModel>
  </diagram>
</mxfile>
